<?xml version="1.0" standalone="no"?>
<!DOCTYPE svg PUBLIC "-//W3C//DTD SVG 1.1//EN" "http://www.w3.org/Graphics/SVG/1.1/DTD/svg11.dtd" >
<svg xmlns="http://www.w3.org/2000/svg">
<metadata>
Created by FontForge 20120731 at Sat Sep 26 13:14:37 2015
 By Ads
</metadata>
<defs>
<font id="iconfont" horiz-adv-x="1024" >
  <font-face 
    font-family="iconfont"
    font-weight="500"
    font-stretch="normal"
    units-per-em="1024"
    panose-1="2 0 6 3 0 0 0 0 0 0"
    ascent="812"
    descent="-212"
    x-height="792"
    bbox="-1 -229.125 1050 812"
    underline-thickness="50"
    underline-position="-100"
    unicode-range="U+0078-FF31"
  />
<missing-glyph horiz-adv-x="374" 
d="M34 0v682h272v-682h-272zM68 34h204v614h-204v-614z" />
    <glyph glyph-name=".notdef" horiz-adv-x="374" 
d="M34 0v682h272v-682h-272zM68 34h204v614h-204v-614z" />
    <glyph glyph-name=".null" horiz-adv-x="0" 
 />
    <glyph glyph-name="nonmarkingreturn" horiz-adv-x="341" 
 />
    <glyph glyph-name="x" unicode="x" horiz-adv-x="1001" 
d="M281 543q-27 -1 -53 -1h-83q-18 0 -36.5 -6t-32.5 -18.5t-23 -32t-9 -45.5v-76h912v41q0 16 -0.5 30t-0.5 18q0 13 -5 29t-17 29.5t-31.5 22.5t-49.5 9h-133v-97h-438v97zM955 310v-52q0 -23 0.5 -52t0.5 -58t-10.5 -47.5t-26 -30t-33 -16t-31.5 -4.5q-14 -1 -29.5 -0.5
t-29.5 0.5h-32l-45 128h-439l-44 -128h-29h-34q-20 0 -45 1q-25 0 -41 9.5t-25.5 23t-13.5 29.5t-4 30v167h911zM163 247q-12 0 -21 -8.5t-9 -21.5t9 -21.5t21 -8.5q13 0 22 8.5t9 21.5t-9 21.5t-22 8.5zM316 123q-8 -26 -14 -48q-5 -19 -10.5 -37t-7.5 -25t-3 -15t1 -14.5
t9.5 -10.5t21.5 -4h37h67h81h80h64h36q23 0 34 12t2 38q-5 13 -9.5 30.5t-9.5 34.5q-5 19 -11 39h-368zM336 498v228q0 11 2.5 23t10 21.5t20.5 15.5t34 6h188q31 0 51.5 -14.5t20.5 -52.5v-227h-327z" />
    <glyph glyph-name="uni2121" unicode="&#x2121;" 
d="M877 776h-730q-40 0 -73 -14.5t-52.5 -39t-19.5 -54.5v-546q0 -44 42.5 -76t102.5 -32h365l288 -214l-15 214h92q39 0 72.5 14.5t53 39.5t19.5 54v546q0 45 -42.5 76.5t-102.5 31.5zM226 315q-37 0 -63 26t-26 63t26 63t63 26q24 0 44.5 -11.5t32.5 -32t12 -45.5
q0 -37 -26 -63t-63 -26zM416 404q0 15 4.5 28.5t13 24.5t19.5 19t24.5 12.5t27.5 4.5q37 0 63 -26t26 -63q0 -24 -11.5 -44.5t-32 -32.5t-45.5 -12q-37 0 -63 26t-26 63zM791 317q-37 0 -63 26t-26 63q0 24 12 44.5t32.5 32.5t44.5 12q12 0 23.5 -3.5t21.5 -9t18 -14
t13.5 -18t9 -21t3.5 -23.5q0 -25 -12 -45.5t-32.5 -32t-44.5 -11.5zM791 317z" />
    <glyph glyph-name="arrowup" unicode="&#x2191;" 
d="M148 27l-97 90l452 495l453 -495l-97 -90l-356 389z" />
    <glyph glyph-name="uni25C8" unicode="&#x25c8;" 
d="M813 738q26 0 48.5 -10t39.5 -27t27 -39.5t10 -48.5v-688q0 -26 -10 -48.5t-27 -39.5t-39.5 -27t-48.5 -10h-688q-26 0 -48.5 10t-39.5 27t-27 39.5t-10 48.5v688q0 26 10 48.5t27 39.5t39.5 27t48.5 10h688zM184 -102q19 0 36 7t29.5 19.5t19.5 29.5t7 36t-7 36
t-19.5 29.5t-29.5 19.5t-36 7q-20 0 -36.5 -7t-29.5 -19.5t-20 -29.5t-7 -36t7 -36t20 -29.5t29.5 -19.5t36.5 -7zM436 -76h36q15 0 29.5 -0.5t30.5 -0.5t36 1q0 91 -35 171.5t-95 140.5t-140.5 94.5t-171.5 34.5q-1 -24 -1 -39v-28q0 -14 0.5 -28.5t0.5 -36.5
q64 0 120.5 -24t98.5 -66t66.5 -98.5t24.5 -120.5zM691 -74q36 0 48 -0.5t18 -1.5t15.5 -1t40.5 2q0 142 -54 266.5t-147 217.5t-218 147t-267 54q-1 -25 -1 -36v-16q0 -4 0.5 -5.5t0.5 -7t0.5 -18t0.5 -39.5q117 0 219.5 -44t179 -120.5t120.5 -179t44 -218.5z" />
    <glyph glyph-name="uni2603" unicode="&#x2603;" horiz-adv-x="1051" 
d="M525 800q-107 0 -204 -41t-167.5 -110.5t-112 -166t-41.5 -202.5q0 -181 113 -321.5t287 -182.5q-1 65 -1 126v65l-2 -1q-101 -47 -148 44q0 2 -5 14t-9.5 21t-14 21.5t-19.5 20.5q-1 0 -3.5 1.5t-5.5 3.5l-8 6q-3 2 -6 5.5t-3 6.5q0 2 1 4t2 2l6 2q3 1 12 1t18 -3
t21.5 -12t23.5 -24q1 -1 6.5 -10t10.5 -14l12 -12q9 -9 19 -12.5t23 -6.5t30.5 0.5t38.5 11.5q7 30 26 46q-56 7 -94 20t-64.5 36t-41 55.5t-22.5 80.5q-9 61 5.5 111.5t44.5 78.5q-2 1 -3.5 6t-3.5 12.5t-3 16.5t-1.5 21t1 24.5t5 26.5t9.5 28q10 1 22 0t26.5 -5.5
t30 -11.5t31.5 -16t31 -20q20 7 48.5 11.5t58 5t58 -1t52 -5.5t37.5 -10q23 19 70 39t70 13q7 -15 11 -35.5t3.5 -49t-9.5 -50.5q63 -64 50 -180q-8 -89 -59.5 -140t-163.5 -61q50 -34 50 -85v-94v-122q165 49 270.5 186.5t105.5 311.5q0 106 -41.5 202.5t-112 166
t-167.5 110.5t-204 41z" />
    <glyph glyph-name="uni261C" unicode="&#x261c;" 
d="M944 234q0 -42 -20 -57t-64 -15h-63q-43 0 -91.5 -0.5t-94.5 -0.5h-73q-38 0 -60.5 -7.5t-21.5 -34.5q0 -20 -1 -47.5t-1 -48.5q0 -35 -19 -44.5t-49 13.5q-30 24 -71 56.5t-83.5 66.5t-84 67t-73.5 58q-30 24 -30.5 45.5t27.5 44.5q28 24 67 55.5t81 65t82.5 66.5
t72.5 59q35 28 57.5 21.5t22.5 -42.5v-25q0 -14 0.5 -29t1 -29.5t0.5 -25.5q1 -25 16 -31.5t41 -6.5q29 0 76 0.5t98 0.5t99 0.5t78 0.5q13 0 27 -2t25.5 -9.5t19 -21t7.5 -35.5q0 -27 0.5 -52t0.5 -56z" />
    <glyph glyph-name="uni261E" unicode="&#x261e;" horiz-adv-x="1000" 
d="M542 406l-183 183l-94 93q-22 22 -41 37t-41.5 26.5t-44 9t-39.5 -20.5q-12 -13 -18 -24.5t-3.5 -25t5.5 -22.5t16 -24.5t20 -22.5t25 -26l275 -274l-275 -275q-26 -26 -40 -52.5t-10.5 -53.5t29.5 -47q23 -18 66.5 6t88.5 68l81 79l183 183q15 15 24.5 33.5t12 38.5
t0 39.5t-12 38.5t-24.5 33z" />
    <glyph glyph-name="invsmileface" unicode="&#x263b;" horiz-adv-x="1000" 
d="M913 -175h-3h-404q-5 0 -6 4q-3 8 -11 1l-3 -5h-370v5v6v5v6v2v8v9q0 5 1 8q1 17 2 29q6 47 17 79q6 14 12.5 27t15.5 24q6 9 14 17q14 13 31 22q1 0 3 1.5t3 2.5l3 1l3 1l3 2q2 1 3.5 2t3 1.5t3.5 1.5q8 4 24 10.5t20 8.5q7 3 11.5 6t7.5 11q3 9 13 18q4 3 13 11
q18 13 26 22t11 13q8 7 15 12t15 8q3 2 5 2q4 0 4 5q0 10 -2 19.5t-6 18.5q-3 5 -8 15l-1 3q-1 1 -2 2.5t-1.5 3t-1.5 3.5q-1 3 -2.5 5.5t-2.5 5.5l-4 6q-1 3 -2 5.5t-2.5 5.5t-2.5 6q-2 3 -3 5l-4 3q-13 3 -21 18q-26 45 -26 46q-1 2 -2 3.5t-1.5 3t-1.5 3t-1.5 3.5t-1 3.5
t-0.5 3.5t-0.5 3.5t-0.5 3.5v19q0 4 -4 5q-2 0 -2 3v21v4q0 2 -0.5 3.5t-1 4t-0.5 4.5q-1 0 -2 -1l-4 -2q-6 -3 -5 3v6q0 2 0.5 5.5t0.5 5.5q0 4 -3 3q-2 -1 -6 0q-3 2 -3 4q2 7 6 22q0 1 1 5v2q-2 1 -3 1q-4 -2 -4.5 0t0.5 7l3 5q-11 1 -12 1q-4 1 -2 5q1 3 7 12q1 2 2 3
t2 2.5t1 2.5h-3l-2 2q-2 0 -3 1q-8 3 -1 8q1 1 2 1.5t2 1.5l2 2q1 0 2 1q0 1 1 1q-1 1 -3.5 1.5t-4 1t-3.5 0.5q0 1 -1 1h-1q-4 2 -2 5q1 3 2.5 5.5t3 4t4.5 3.5q2 3 10 12q0 1 8 12q-2 3 -3 3q-1 1 -2 2.5t0 3t3 3.5q1 0 2.5 1t3.5 2t3 1t2 1l1 1q-5 2 -6 2q-6 4 -6 5
q-2 3 2 6q2 1 5 3t5 4q2 1 4.5 3.5t4 4.5t3.5 4q4 4 10 11l4 4l1 1l1 1q-1 0 -2 1q-3 1 -4 1t-5 1q-3 0 -4 3t2 5q9 5 21 7q1 0 7 1.5t9 2.5q6 2 26 14q17 10 24 12l9 3q-1 1 -5.5 10t-4.5 14q7 1 19.5 -2.5t22.5 -1.5q-1 2 -2 6t-1.5 5.5t-1 5.5t0.5 6q7 0 16 -6l2 -2
q10 -7 16 -7q3 -1 4 1q1 1 2 3l2 2l2 4l2 2t2 2.5t2 3.5l3 2q1 2 2 3.5t3 2.5t4 1l1 1h2q-3 -13 -4 -24l6 1q9 3 17 7q2 1 4 1.5t4 1.5t3.5 2t3.5 1.5t4 1.5q1 1 3 1h1q1 -1 0.5 -3t-0.5 -3l-2 -3q-1 -2 -2 -3h8q8 -1 14 -1.5t11 -1.5q9 -1 20 -3q9 -1 14.5 0t13.5 3
q2 -3 -1 -6q-2 -2 -3 -4q16 2 28 3q0 -2 -0.5 -4.5t-3 -5.5t-3.5 -3q1 -1 3 -2.5t3.5 -2.5t2.5 -2q2 -2 3.5 -3t3.5 -3t4 -3q1 -1 8 -7.5t11 -9.5q2 -2 7 -2q34 -6 42 -8q0 -3 -1 -4.5t-3 -2.5q-1 -1 -3 -1.5t-3.5 -1t-3 -1.5t-3 -1.5t-3.5 -1.5l8 -11q2 -3 10.5 -14.5
t12.5 -17.5q1 -2 5 -9q1 -2 0 -2.5t-3 -0.5l-5 1q4 -9 4 -10q1 0 4.5 -10t5.5 -14q1 -4 4 -8t-2 -7l-1 -1q3 -6 9 -18.5t8 -17.5q-3 0 -9 2t-9 1q1 -14 1 -15q1 -7 5 -22q0 -2 2 -5v-1q2 -3 -2 -4h-2h-3q-3 -1 -4 -2q0 -2 -1 -5.5t-1 -4.5v-1q1 -2 1 -4t-2 -4q-5 -3 -8 -3
q0 -2 1 -6t1 -7t1 -6v-2q0 -2 -1 -4h-1q-1 -1 -1 0l-4 3v-9q0 -11 -5 -20v-2q1 -4 2 -7.5t1.5 -7.5t0.5 -8v-8q-1 -12 -7 -22q-11 -18 -12 -20q-2 -3 -3.5 -7t-3 -9t-2.5 -7q-2 -7 -5 -11t-7 -6q-7 -3 -12 -3q-3 0 -5.5 -1t-3.5 -4q-6 -9 -10 -24l-2 -6l-2 -6l-2 -6l-4 -6
q-1 -3 -2.5 -5.5t-3.5 -5.5q-9 -15 -13 -23q-4 -10 -2 -24q5 0 10 -0.5t9.5 -2t9.5 -2.5q3 -2 7 -3.5t7.5 -4t6.5 -5.5q8 -7 14.5 -15.5t11.5 -18.5q3 -6 5.5 -12t6.5 -14.5t5 -11.5q2 -3 4 -8.5t3 -7.5l1 -1q17 -14 20 -16t5 -3.5t4.5 -3t5.5 -2.5t5.5 -2t5.5 -2
q17 -5 37 -18q37 -24 40 -26q12 -8 22 -18q5 -6 9 -13.5t8 -17.5q8 -20 17 -56q3 -12 7 -38q2 -8 4 -28q0 -5 0.5 -10t0.5 -9v-22zM667 336q11 -1 16 8q2 5 3 10q1 4 3 8t3 7t3.5 7t4 6.5t4.5 7t4 7.5q5 9 7.5 17t0.5 17q-3 15 -14 21q-5 1 -7 -1t-3.5 -4.5t-3.5 -4.5
q-7 -10 -12 -11q-7 -1 -7 -7q0 -4 -5 -5q-4 2 -5 4q0 2 -0.5 4t-0.5 3.5t-1 3.5v8v6q-2 4 -5 6q-8 3 -16.5 4.5t-17.5 2.5h-14q-7 0 -14 -1l-14 -2q-21 -5 -34 -13q-2 -1 -2 -2v-24q0 -3 -0.5 -4t-3.5 -2q-6 -2 -8 3q-1 4 -2 22v3l1 3h-11q-6 0 -11 -0.5t-11 -1.5v-21
q0 -3 -0.5 -5t-2.5 -3q-5 -5 -6 1q0 1 -1 16q-2 9 -2 11l-2 3q-7 3 -13.5 5t-13.5 4l-14 4q-5 0 -10 1t-10 1q-12 1 -19 0q-10 -2 -20 -6l-13 -9q-4 -3 -3 -16t0 -16h-18q5 -34 6 -36q2 -14 5 -25l6 -22q1 -3 2 -7t3 -8t3 -6.5t3 -8t3 -7.5q9 -21 25 -37q3 -3 6 -6.5t8 -6.5
q0 -1 2.5 -3t3.5 -3t3 -2.5t3 -3t3 -3t3 -2.5q14 -11 29 -18q29 -12 62 -9q7 1 12.5 2t11.5 3.5t12 5.5q3 2 8.5 5t7.5 4q18 11 26 19q6 7 10.5 12t8.5 10q5 7 9.5 14t8.5 14q4 6 7 13.5t5 13.5t4 14q4 16 16 62q1 4 0 22l1 15l4 4q1 0 1 -1l3 -3v-1q3 7 15 10
q-1 -1 -1.5 -2.5t-2.5 -2.5q0 -1 -1 -2q-7 -8 -8 -14q-1 -2 -1 -3.5t1 -3t3 -2.5q0 5 0.5 5.5t1.5 1t2 1.5q1 0 1 -2q1 -1 1 -2v-4q0 -2 0.5 -4.5t0.5 -5.5l-2 -13h4l-1 -3q0 -2 -1 -3q-2 -1 -3 -1l-1 1h-1l-6 -5q0 -1 -1 -1h-2v4l1 3q-7 -5 -6 -17q3 -2 4 -2t2 0.5t2 3.5
l1 1q1 0 3 2h1l1 -1q-2 -9 -7 -14q-1 -1 -2.5 -1t-3.5 1q-4 3 -5 0l-1 -2q0 -1 -2 -13zM520 -128q9 13 9 14q6 11 14 42q8 28 18 40q4 5 13 14.5t10 11.5l4 4q4 4 5.5 6t4.5 5t5 6q14 19 22.5 41t14.5 49l-1 3q-2 2 -5.5 4.5t-3.5 3.5q-9 6 -14 13t-7 16q-2 14 -1 25
q0 5 0.5 11t1 13t0.5 11q1 1 2 25q0 -1 -1 -1q-2 0 -2 -1q-9 -3 -31 -20q-16 -13 -33 -17q-10 -2 -22.5 -2.5t-22.5 -0.5q-12 1 -25 4q-9 3 -17.5 7.5t-20.5 12.5q-9 7 -16 11t-15 7v-4q0 -5 1 -13t1.5 -15t1.5 -13v-17q0 -8 -2 -15q-3 -13 -10 -18q-10 -9 -17 -14l-3 -3
q-2 -2 -3.5 -4.5t-1.5 -4.5v-6q0 -3 0.5 -6t0.5 -5q3 -15 8 -29t12 -27q4 -7 7 -11.5t8 -10t11 -8.5q7 -4 25 -12q5 -2 8 -3.5t7.5 -4t7.5 -5.5l6 -6q33 -38 38 -79q1 -13 8 -24zM668 455v1h1v4v4v4v4v4q-2 7 -3.5 15t-4.5 16q-9 31 -9 43q0 1 -1 2q-15 19 -20 25l-6 6h-1
q0 -2 1 -6q1 -10 -2 -16q-1 2 -3 4q-3 4 -4 6q-2 2 -4 5t-3 4q-4 7 -7 10l-7 8q0 -12 -1 -13q-44 34 -65 45l1 -2l2 -1q11 -12 12 -12q1 -2 2.5 -4t2.5 -4q2 -4 -2 -4h-12q-2 1 -18 5q0 -2 -1 -2.5t-2 0.5q-1 0 -3.5 1t-3.5 1q-5 2 -14.5 6.5t-13.5 6.5q-5 2 -6.5 1.5
t-4.5 -4.5l-2 -2l-1 -1q-1 -1 -4 -4.5t-4.5 -5.5t-4 -5t-4.5 -5l-4 -5l-6 -4l-4 -5q-1 0 -2 -1h-1l-2 3v6l-2 -4q-1 -1 -2.5 -3.5t-2.5 -4t-2.5 -3.5t-2.5 -3q-3 -6 -6.5 -9.5t-8.5 -6.5l-9 -3v1v3l3 5q2 6 1 9q-1 -2 -3.5 -6t-4 -6t-3.5 -6t-3.5 -6.5t-3 -6t-2.5 -6.5
t-1.5 -7t-1.5 -7q-2 0 -3.5 3.5t-1.5 4.5q-6 -12 -7 -13q-5 -11 -5 -13q-1 -2 -1.5 -5.5t-0.5 -6t-0.5 -6t-0.5 -5.5t-0.5 -6t-0.5 -6.5t-0.5 -5.5t-1.5 -6q0 -1 -4 -13h8l5 11q6 9 21 13q24 7 57 4q22 -2 43 -12q4 -2 6.5 -2.5t6.5 0.5q5 1 25 -1q18 -1 27 5q6 4 13 6.5
t12.5 3.5t14.5 2q19 2 36 1q21 -2 38 -8q3 0 4 -1.5t1 -3.5q1 -1 2 -3zM336 430q-8 5 -9 6q-5 3 -7 4q-7 2 -9 -1q-8 -16 -5 -32q1 -7 4 -14t8 -15q3 -6 9.5 -17t9.5 -15q3 -6 6 -10q4 -5 11 -6q-4 22 -5 24q-1 4 -1.5 4.5t-4.5 -1.5q-1 -1 -2.5 -0.5t-2.5 2.5q-2 4 4 5h3
l2 1l-1 5q-1 5 -6 6l1 -3v-3l1 -1h-2q-2 0 -3 1l-1 1q-9 9 -8 22q0 9 8 12l-1 -7v-7h1l2 1h1l1 1q0 1 -0.5 6t-1 6.5t-0.5 5.5t-0.5 6.5t-1 6t-0.5 6.5zM354 669q4 5 9.5 9.5t10 7.5t10.5 7.5t10 8.5q-19 -9 -22 -10q-2 -1 -7 -2h-2q-2 0 -3 1v1l1 1q2 2 5 4l2 2
q-2 0 -4 -0.5t-3 -1.5q-5 -5 -21 -22l-2 -2v-1q3 2 8 5.5t7 5.5q4 -6 1 -14zM480 -97q0 7 -5 7q-2 0 -4.5 -2.5t-2.5 -4.5q1 -5 5 -7q6 2 7 7zM680 385q4 -1 5 4q2 4 1 6t-4 4q-1 -2 -1 -4.5t-0.5 -5t-0.5 -4.5zM343 382v1v3h-1q0 1 -1 1q-1 -1 -3 -4l-2 -1h7zM480 -97
q0 -7 -7 -7q-1 0 -2 1t-2 2.5t-1 3.5t2.5 4.5t4.5 2.5q4 -2 5 -7zM680 385q0 2 0.5 4.5t0.5 5t1 4.5q5 -3 3 -10q-1 -5 -5 -4zM343 382h-7l5 5l2 -1v-4zM610 449q1 0 1 -2q1 -12 2 -19q4 -2 0 -6q-2 -2 -5 -3.5t-7 -1.5q-16 -1 -27 4l-8 5l1 1h1h1h1h1h1h1h1h1q-3 11 -2 16
v1h-1l-1 -1l-1 -1l-1 -1l-1 -1l-1 -1l-1 -1l-1 -1l-1 -1l-1 -1l-1 -1l-1 -1l-1 -1q0 -1 1 -3t2 -3h-1v-1q-11 2 -12 3q5 14 19 23q16 9 37 7q14 -2 30 -13q2 -1 4 -3t4 -3.5t4 -3.5l4 -6q-22 -2 -26 -3q-2 0 -4 1q-1 0 -2 1q0 1 -1 1l3 3l9 2h3q-6 8 -24 15zM590 446h-4
q-6 -2 -6 -5q-1 -3 2 -5q4 -3 7.5 -1.5t4.5 5.5q2 5 -2 6h-2zM460 425q-1 8 -11 15q-1 -8 -1 -9l-1 -8h8v-1q-4 -4 -12 -7q-5 -2 -10 -2.5t-11 -0.5q-9 1 -14 6q-3 3 0 5q2 1 2 3q-1 4 -1 8.5t1 8.5q-1 2 -7 0q-5 -1 -9 -3.5t-9 -7.5q1 0 2 -1q3 0 4 -1q9 -2 10 -2t1 -2
l-2 -1q-13 -1 -24 3v1h-1q4 10 15 16.5t26 7.5q17 2 31 -3q6 -2 11 -5.5t7 -8.5h1q0 -3 1 -7l1 -2q-2 0 -8 -2zM431 442h-3l-7 1q-3 0 -4 -1.5t-1 -3.5t2 -3q3 -4 7 -3q6 2 6 10zM575 290q-40 -9 -45 -11q-7 -1 -11.5 -1t-11.5 1q-4 1 -10.5 2t-12.5 1.5t-10 1.5h-7h-6
q-5 0 -7 1.5t-3 4.5h4h7h10h8q3 0 7 -0.5t7.5 -1t7.5 -1.5q9 -2 16.5 -1t16.5 3q6 2 11.5 3t11.5 2q3 1 6 0.5t6 -1.5t5 -3zM476 266q23 -9 38.5 -8t37.5 9q-3 -6 -10 -10q-9 -6 -22 -7q-20 -2 -33 6q-7 4 -11 10zM698 394q1 2 1.5 3.5t1 2.5t1 2.5t1.5 3.5q1 4 2 6t1.5 5.5
t-0.5 6.5q0 1 -3 14q3 -1 4.5 -3.5t2.5 -5.5t1.5 -6.5t0.5 -7.5q-2 -9 -5.5 -14.5t-8.5 -6.5zM530 321l1 3q7 8 15 9q1 0 2.5 -0.5t2.5 -1.5q5 -4 -1 -7q-8 -4 -20 -3zM497 322h-11q-2 0 -5 1l-2 1q-2 1 -2 3q0 5 4 5q10 0 16 -10zM543 393q3 -4 5 -8.5t4 -11t3 -9.5
q-7 4 -10.5 12.5t-1.5 16.5zM650 402l3 5q6 6 6 9h1l2 1q2 -1 2 -3q-1 -6 -7 -10q-2 0 -4 -2h-2h-1zM365 407q4 -1 6 -8q-4 0 -5.5 2t-0.5 6zM436 107q7 -12 14.5 -37t10.5 -33q-20 23 -25 70zM584 118q1 0 1 -1q1 -1 1 -2q-1 -37 -11 -59q0 9 1.5 19.5t4 22t2.5 19.5z
M376 491q3 6 10 10q10 6 26 7q14 0 26.5 -2.5t24.5 -9.5q1 0 3 -1.5t4 -2.5l2 -2q2 -1 3 -2.5t2.5 -3t4.5 -7.5v-3q-1 -1 -4 -1q-3 3 -6.5 4.5t-6 2t-7 1t-6.5 0.5q-32 7 -75 10h-1zM537 477q2 9 12 17q14 10 38 16q17 4 30 2q4 -1 8 -2.5t8 -3.5t7 -4.5t7 -5.5q-3 -4 -8 -4
q-2 0 -5 0.5t-6 0.5h-4q-7 1 -17 0q-8 -1 -17 -3q-34 -6 -45 -12q-4 -3 -8 -1zM324 389q-1 0 -2 1.5t-2 2.5t-1 2q-6 13 -1 25t15 5q4 -3 0 -4q-2 -1 -3.5 -1t-3.5 1q-1 0 -2 -1l-1 -1q-2 -3 -2 -6t1 -6q0 -2 1 -5.5t1 -4.5t1 -8h-1z" />
    <glyph glyph-name="uni2708" unicode="&#x2708;" horiz-adv-x="1000" 
d="M990 -119l-71 -71q-4 -4 -9 -6.5t-10 -3t-10 0t-10 3t-9 6.5l-143 143q-10 10 -10 24t10 23l4 4l-67 67q-1 1 -4 6q-112 -90 -255 -90q-110 0 -203.5 54.5t-148 148t-54.5 204t54.5 204t148 148t204 54.5t204 -54.5t148 -148t54.5 -203.5q0 -143 -90 -255q5 -3 6 -4
l67 -67l4 4q3 3 7 5.5t8 3.5t8.5 1t8.5 -1t8 -3.5t7 -5.5l143 -143q18 -18 6 -40q-3 -5 -6 -8zM406 643q-68 0 -125.5 -33t-90.5 -91t-33 -125.5t33 -125t90.5 -91t125.5 -33.5t125.5 33.5t91 91t33.5 125.5q0 103 -73 176t-177 73z" />
    <glyph glyph-name="uni4EBA" unicode="&#x4eba;" 
d="M517 166q9 -6 9 -15q0 -8 27 -66q27 -56 85 -118q59 -62 87 -79q2 -1 4 -3q4 -2 8 -5t9 -7v-1q-99 -57 -232 -60q-106 -1 -208 47q-1 1 -26 14q3 4 18 14q13 7 38.5 30t49.5 48q57 60 84 117q28 61 32 73q3 7 7 10t8 1zM592 766q57 -11 87 -22q122 -45 206 -147.5
t104 -230.5q22 -148 -42 -282q-24 -50 -72 -108q-8 2 -23 8q-8 4 -22.5 14t-32 24.5t-32.5 28.5q-55 51 -89 101q-13 20 -27.5 46t-21.5 43q-4 11 -9 26.5t-10 32t-8 29.5q-12 50 -12 243zM430 764q1 -29 1.5 -53t1 -35.5t0.5 -26.5q1 -92 0 -175v-25q0 -20 -0.5 -28.5
t-1 -24.5t-1.5 -28.5t-3 -24.5q-3 -20 -11 -45q-16 -51 -36 -92q-8 -17 -25.5 -44.5t-34.5 -49.5t-44 -49t-49 -43q-54 -39 -71 -45l-2 -1q-44 50 -73 110q-64 132 -42.5 277.5t119.5 253.5q35 39 96 78t95 51q72 26 81 20z" />
    <glyph glyph-name="uni535A" unicode="&#x535a;" 
d="M686 698q-16 -7 -23.5 -19.5t-5.5 -26.5t13 -26q5 -4 9 -6.5t12 -4t19 -2t29 -0.5q95 0 144 -56q31 -35 38 -58.5t7 -86.5q0 -57 2.5 -68t15.5 -19q30 -17 49.5 3.5t26.5 77.5q9 73 -29.5 149t-104.5 115q-43 25 -105.5 33.5t-96.5 -5.5v0zM356 573q-111 -40 -226 -162
q-138 -147 -129.5 -277t160.5 -205q104 -51 227 -58.5t235.5 28.5t188.5 109q57 54 73.5 114t-11 109t-92.5 72q-12 4 -18.5 7.5t-8.5 7t0 6.5q20 51 9 84q-16 48 -70.5 58.5t-138.5 -17.5l-45 -16l4 45q3 40 -6 63t-33 35q-7 4 -17.5 6.5t-23 3t-25.5 -1t-26.5 -4.5
t-26.5 -7v0zM543 313q29 -8 54.5 -20t45 -27.5t33 -33t21 -37.5t7.5 -42q0 -60 -50 -110.5t-137 -79.5q-46 -15 -118.5 -17.5t-114.5 9.5q-80 22 -123.5 65t-43.5 100q0 61 58 114q28 27 53.5 42t65.5 28q128 43 249 9zM331 248q-104 -49 -104 -140q0 -80 77 -121
q20 -11 49.5 -14.5t60 1.5t52.5 16q44 23 70.5 62.5t26.5 81.5q-1 34 -27 69.5t-62 49.5q-29 12 -71 10.5t-72 -15.5zM380 122q8 -8 8 -26q0 -17 -15.5 -30.5t-33 -16t-30.5 7.5q-6 6 -7.5 17.5t2 23t10.5 18.5q11 11 34 13t32 -7zM698 560q-24 -23 -11 -45.5t50 -22.5
q31 0 46 -16.5t15 -53.5q0 -22 2.5 -31.5t11.5 -15.5q28 -19 47 -0.5t19 63.5q0 55 -35.5 92t-91.5 41q-25 2 -34.5 0t-18.5 -11v0z" />
    <glyph glyph-name="uni8C46" unicode="&#x8c46;" 
d="M685 293h-374v187h374v-187zM857 732q34 0 58 -23.5t24 -58.5v-714q0 -34 -24 -58t-58 -24h-715q-34 0 -57.5 24t-23.5 58v714q0 35 23.5 58.5t57.5 23.5h715zM183 607h633v62h-633v-62zM248 543v-311h500v311h-500zM837 44h-172l61 109l-69 52q-5 -12 -9 -23t-9.5 -23
t-11.5 -23q-17 -29 -31 -56.5t-19 -35.5h-155q-4 8 -18 35.5t-31 56.5q-7 11 -12 23t-9 23t-9 23l-69 -52l61 -109h-172v-64h674v64z" />
    <glyph glyph-name="uni9E1F" unicode="&#x9e1f;" 
d="M960 563q-6 -14 -17.5 -28t-21.5 -23t-25 -22q-19 -15 -21 -44q-18 -346 -307 -480q-246 -115 -496 24q-8 5 -8 11q105 -8 189 31q46 21 74 45q-5 1 -11 2t-10.5 2t-8.5 2q-91 20 -132 105q-6 11 -3.5 16t15.5 3q23 -2 53 3q-132 52 -138 186q6 -2 23.5 -8.5t29.5 -9
t25 -2.5q-61 52 -73 116q-13 71 22 132q59 -66 111 -102q111 -76 250 -91q13 -2 18 1.5t4 17.5q-14 119 88 181q107 65 203 -7q40 -29 85 -9q7 3 15 6.5t15 6.5t17 7.5t18 7.5q-12 -32 -30 -55.5t-46 -42.5q20 0 53 9.5t39 10.5z" />
    <glyph glyph-name="uniE600" unicode="&#xe600;" horiz-adv-x="1000" 
d="M514 -154zM485 228l184 -183l94 -93q22 -22 41 -36.5t41.5 -26.5t44 -9t39.5 21q10 10 15.5 21t7 20t-3.5 21t-9 19t-16 21t-18 20t-21 22l-184 183l-91 91l91 92l184 183q19 20 31.5 40t17.5 40t-2 39t-26 34q-24 18 -67.5 -5.5t-87.5 -68.5l-81 -79l-184 -183
q-18 -19 -28 -43t-10 -48.5t10 -49t28 -42.5z" />
    <glyph glyph-name="uniE601" unicode="&#xe601;" 
d="M339 -66q-20 -20 -48.5 -20t-48.5 20l-96 96q-20 20 -20 48.5t20 48.5l125 125l117 117q-39 24 -85.5 18.5t-80.5 -39.5l-173 -173q-40 -40 -40 -96.5t40 -96.5l145 -145q40 -40 96.5 -40t96.5 40l173 173q34 34 39 80.5t-18 85.5zM975 618l-145 145q-16 15 -35.5 25
t-40.5 13t-41.5 0t-40 -13t-35.5 -25l-173 -173q-34 -34 -39.5 -80.5t18.5 -85.5l242 242q13 13 30.5 18t35 0t31.5 -18l96 -96q13 -14 18 -31.5t0 -35t-18 -30.5l-242 -242q26 -15 56 -18t59 7t51 32l173 173q26 26 35.5 61t0 70.5t-35.5 61.5zM327 139l24 -24
q15 -15 36 -15t36 15l274 274q15 15 15 36t-15 36l-24 24q-7 8 -16.5 11.5t-19.5 3.5t-19.5 -3.5t-16.5 -11.5l-274 -274q-8 -7 -11.5 -16.5t-3.5 -19.5t3.5 -19.5t11.5 -16.5z" />
    <glyph glyph-name="uniE602" unicode="&#xe602;" 
d="M46 357q0 42 20.5 56.5t64.5 14.5q20 0 63 -0.5t91.5 -0.5t94.5 -0.5t73 -0.5q38 -1 60 6.5t22 34.5q0 20 1.5 47.5t1.5 47.5q1 35 20 44.5t48 -14.5q30 -24 70 -57t83 -67.5t84 -68t73 -58.5q29 -24 29.5 -45.5t-27.5 -44.5q-29 -24 -68.5 -55t-82 -64t-83.5 -65.5
t-73 -57.5q-35 -28 -57.5 -21t-21.5 43v53q0 15 -0.5 29.5t-0.5 26.5q0 25 -15 31.5t-41 6.5q-29 0 -76 0.5t-98 0.5t-99 0.5t-78 0.5q-13 0 -27 2.5t-25.5 9.5t-18.5 20.5t-7 36.5q0 27 -0.5 52t0.5 56z" />
    <glyph glyph-name="uniE603" unicode="&#xe603;" 
d="M925 -42l-211 456v112h46v88h-496v-88h40v-113l-206 -455q-16 -37 6 -71.5t63 -34.5h690q20 0 36.5 9.5t26.5 25.5q22 34 5 71zM170 -65l209 462v129h260v-129l215 -462h-684zM379 221q-1 1 -30.5 -60.5t-58.5 -123.5l-30 -62h504l-141 294q-3 -3 -8.5 -8t-22.5 -18.5
t-34 -24t-41 -20t-46 -11.5t-47 6t-45 28zM533 353q26 0 44.5 18.5t18.5 44.5t-18.5 44.5t-44.5 18.5q-17 0 -31.5 -8.5t-23 -23t-8.5 -31.5t8.5 -31.5t23 -23t31.5 -8.5zM554 664q17 0 29.5 12t12.5 29.5t-12.5 30t-29.5 12.5t-29.5 -12.5t-12.5 -30t12.5 -29.5t29.5 -12z
M470 227q17 0 29.5 12.5t12.5 29.5q0 11 -5.5 21t-15.5 15.5t-21 5.5q-17 0 -29.5 -12.5t-12.5 -29.5q0 -28 26 -39q8 -3 16 -3z" />
    <glyph glyph-name="uniE604" unicode="&#xe604;" 
d="M892 -200h-65q-29 0 -50 5t-36 15.5t-25.5 26.5t-19.5 37q-15 38 -27.5 69t-21.5 54q-11 26 -20 48h-249q-7 -23 -17 -50q-8 -23 -21 -55.5t-30 -70.5q-20 -45 -46 -62t-59 -17h-69q-44 0 -59.5 19.5t2.5 66.5q18 45 42 106t51 129.5t56 140.5t56 141q64 161 134 335
q7 17 18 31q10 11 26.5 21t41.5 10q26 0 42.5 -10.5t27.5 -23.5q12 -15 19 -33q71 -176 135 -337q27 -69 56 -140.5t55.5 -139t50 -126.5t40.5 -102q14 -34 4 -61t-42 -27zM602 180l-95 339h-1l-106 -339h202z" />
    <glyph glyph-name="uniE605" unicode="&#xe605;" horiz-adv-x="1029" 
d="M-1 102q0 49 13 85t47 68v-306q-35 31 -47.5 67t-12.5 86zM936 255q30 -23 48.5 -63.5t18.5 -89.5q0 -50 -14.5 -85.5t-52.5 -67.5v306zM817 300q19 0 38 -15t19 -42v-259q0 -12 -5.5 -22.5t-13.5 -19t-18.5 -13t-19.5 -4.5h-70q-26 0 -43.5 16t-17.5 43v259
q0 27 19.5 42t41.5 15h70zM245 300q29 0 47 -14t18 -44v-252q0 -30 -15.5 -47t-40.5 -17h-73q-30 0 -44.5 18t-14.5 44v254q0 30 18 44t43 14h62zM499 739q79 0 149 -27t122.5 -76.5t82.5 -118.5t30 -152h-66q-25 0 -45 -0.5t-20 0.5q0 62 -21 109.5t-55.5 79.5t-80 48
t-96.5 16q-50 0 -95 -21t-79.5 -56.5t-55.5 -81t-21 -94.5h-132q0 83 30 152t82 118.5t122 76.5t149 27z" />
    <glyph glyph-name="uniE606" unicode="&#xe606;" 
d="M960 300h-128v-448q0 -27 -18.5 -45.5t-45.5 -18.5h-128v384q0 27 -18.5 45.5t-45.5 18.5h-128q-27 0 -45.5 -18.5t-18.5 -45.5v-384h-128q-27 0 -45.5 18.5t-18.5 45.5v448h-128l-64 64l512 448l512 -448z" />
    <glyph glyph-name="uniE607" unicode="&#xe607;" 
d="M66 781l1 -505h94v-189l183 183l-29 29l-113 -113v131h-95v423h610v-144h41v185h-692zM391 549h598v-506h-92v-191l-192 191h-314v506zM432 84h290l134 -134v134h92v424h-516v-424z" />
    <glyph glyph-name="uniE609" unicode="&#xe609;" 
d="M238 633q-15 15 -23 34q-3 7 -4.5 13.5t-2.5 13t-1 13.5q0 20 8 39q8 21 23 35q31 31 73 31q43 0 73 -31l405 -408q3 -2 6 -5t5 -6.5t4 -6.5t4 -7t3 -8q7 -20 5 -42q0 -7 -1 -14.5t-3 -14.5t-5 -14q-3 -6 -5.5 -10.5t-5.5 -9.5t-6.5 -9t-6.5 -8l-399 -401
q-30 -32 -72.5 -32t-73.5 32q-15 16 -23 34q-7 19 -7 39q0 10 1.5 20t5.5 20t9.5 18.5t13.5 16.5l330 334zM238 633z" />
    <glyph glyph-name="uniE60A" unicode="&#xe60a;" 
d="M786 633l-330 -334l330 -334q15 -15 23 -34.5t8 -40.5q0 -20 -8 -39q-8 -20 -23 -34q-31 -32 -73.5 -32t-72.5 32l-399 401q-15 15 -24 37q-2 5 -3 11l-4 10q-1 6 -1.5 11t-0.5 11q-2 22 5 42t22 33l405 408q5 6 10.5 10t11 7.5t11.5 6t12.5 4t13.5 2.5t14 1
q21 0 39.5 -7.5t33.5 -23t23 -35t8 -39.5t-8 -39.5t-23 -34.5zM786 633z" />
    <glyph glyph-name="uniE60B" unicode="&#xe60b;" 
d="M645 -52q6 0 -3.5 -15t-29 -33t-46 -33t-56.5 -15q-27 0 -52 15t-44 33t-29 33t-6 15h266zM893 33q7 -9 6.5 -17.5t-4.5 -14.5t-10 -9.5t-12 -3.5h-730q-14 0 -20.5 11.5t4.5 28.5q17 30 40 67t43.5 79.5t35.5 90t15 99.5q0 50 14 90t36.5 70t52 51t61.5 32
q-16 26 -16 54q0 41 28 69t69 28t69 -28t28 -69q0 -14 -4 -27.5t-11 -24.5q34 -11 64.5 -32t53 -52t36 -71t13.5 -89q0 -50 15 -98.5t36 -92t44.5 -79.5t42.5 -62zM467 661q0 -16 11 -27.5t27 -11.5h2q16 1 27 12t11 27q0 17 -11 28t-28 11t-28 -11t-11 -28z" />
    <glyph glyph-name="uniE60C" unicode="&#xe60c;" 
d="M511 -107q-14 0 -26 10q-308 204 -395 428q-30 77 -27 132q1 100 72.5 170.5t171.5 70.5q25 0 49.5 -5t46.5 -14.5t41.5 -23t36.5 -30.5t30 -37q33 51 87 80.5t116 29.5q40 0 77 -12.5t67 -34.5t52.5 -51.5t35 -66.5t12.5 -76q1 -11 0 -25.5t-8.5 -48.5t-22 -69.5
t-45.5 -86t-74 -100.5t-112.5 -110.5t-155.5 -117.5q-6 -6 -13.5 -9t-15.5 -3zM727 166q44 47 75.5 95t45 80t21 62t8 40t0.5 15q0 69 -47.5 117t-115.5 48q-44 0 -81.5 -21.5t-59 -58.5t-21.5 -81q0 -17 -12 -28.5t-29 -12.5q-18 1 -30 12.5t-12 28.5q0 66 -47.5 113.5
t-114.5 47.5t-114.5 -47.5t-47.5 -113.5v-4q-1 -8 0.5 -25.5t20 -68t52.5 -103.5t110.5 -129.5t182.5 -148.5q34 24 65.5 47.5t58.5 46.5t49.5 45t42.5 44z" />
    <glyph glyph-name="uniE60D" unicode="&#xe60d;" horiz-adv-x="1000" 
d="M692 440q1 0 19 -1q-17 116 -117.5 194t-236.5 78q-97 0 -179 -41.5t-130 -113t-48 -156.5q0 -116 98 -214q11 -11 13.5 -29t-1 -36t-9 -35t-10.5 -27l-5 -11q3 2 8 4t19.5 8.5t28.5 12t31.5 12.5t32 11t27.5 6.5t19 0.5q51 -14 105 -14l15 1q-12 37 -12 72
q0 75 44.5 139t121 101.5t166.5 37.5zM492.5 549q20.5 0 35 -14.5t14.5 -35t-14.5 -35t-35 -14.5t-35 14.5t-14.5 35t14.5 35t35 14.5zM209 450q-21 0 -35.5 14.5t-14.5 35t14.5 35t35.5 14.5q13 0 24.5 -6.5t18 -18t6.5 -25t-6.5 -25t-18 -18t-24.5 -6.5zM692 416
q-127 0 -217.5 -74.5t-90.5 -179.5t90.5 -179.5t217.5 -74.5q55 0 107 16q5 1 10 1q28 0 107 -36q-18 83 1 99q83 74 83 174q0 69 -41.5 127.5t-112.5 92.5t-154 34zM584.5 212q-17.5 0 -30 12.5t-12.5 30t12.5 30t30.5 12.5q11 0 20.5 -6t15.5 -15.5t6 -21.5
q0 -17 -12.5 -29.5t-30 -12.5zM794.5 212q-11.5 0 -21.5 6t-15.5 15.5t-5.5 21.5q0 17 12.5 29.5t30 12.5t29.5 -12.5t12 -29.5q0 -12 -5.5 -21.5t-15 -15.5t-21 -6z" />
    <glyph glyph-name="uniE60F" unicode="&#xe60f;" 
d="M1015 451q0 6 -0.5 7t-4.5 1h-6h-304l-45 81l-123 240h-23l-112 -240l-45 -81h-352v-5l63 -46l178 -159l-40 -364q0 -8 3.5 -9.5t21.5 -1.5l293 182l293 -182q9 0 12 1.5t11 9.5l-56 364l169 146zM273 102l326 268l-303 53h461l-282 -257l293 -64h-495z" />
    <glyph glyph-name="uniE613" unicode="&#xe613;" horiz-adv-x="1000" 
d="M515 317zM408 318v3q0 45 31.5 76.5t76 31.5t76 -31.5t31.5 -76.5v-3v-4q0 -13 -3 -25t-8.5 -22.5t-12.5 -20t-16.5 -16.5t-20 -12.5t-22.5 -8.5t-25 -3q-44 0 -75.5 31.5t-31.5 76.5v4zM186 317zM79 318v1v2q0 45 31.5 76.5t76 31.5t76 -31.5t31.5 -76.5v-3v-4
q0 -29 -14.5 -54t-39 -39.5t-54.5 -14.5q-44 0 -75.5 31.5t-31.5 76.5v2v2zM843 317zM736 317v4q0 45 31.5 76.5t76 31.5t76 -31.5t31.5 -76.5v-4v-3q0 -29 -14.5 -54t-39 -39.5t-54.5 -14.5q-44 0 -75.5 31.5t-31.5 76.5v3z" />
    <glyph glyph-name="uniE616" unicode="&#xe616;" horiz-adv-x="1000" 
d="M714 554h-396q-17 0 -28.5 -11.5t-11.5 -28t11.5 -28t28.5 -11.5h396q11 0 20 5.5t14.5 14.5t5.5 20q0 16 -11.5 27.5t-28.5 11.5zM714 396h-396q-17 0 -28.5 -11.5t-11.5 -28t11.5 -28.5t28.5 -12h396q11 0 20 5.5t14.5 14.5t5.5 20q0 17 -11.5 28.5t-28.5 11.5z
M873 753h-714q-22 0 -40 -10.5t-28.5 -29t-10.5 -40.5v-714q0 -32 23 -55.5t56 -23.5h436q17 0 29 12l316 316q6 6 9 13.5t3 15.5v436q0 17 -6 31.5t-17 25t-25.5 17t-30.5 6.5zM635 18v140q0 16 11.5 27.5t28.5 11.5h140zM873 277h-238q-33 0 -56 -23.5t-23 -56.5v-238
h-357q-11 0 -20 5.5t-14.5 14.5t-5.5 20v635q0 16 11.5 27.5t28.5 11.5h634q17 0 28.5 -11.5t11.5 -27.5v-357zM397 237h-79q-4 0 -8 -0.5t-7.5 -2t-7 -4t-6 -5t-4.5 -6t-3.5 -7t-2.5 -7t-1 -8.5q0 -16 11.5 -27.5t28.5 -11.5h79q6 0 12.5 2t11 5.5t8.5 8.5t6 11t2 12
q0 28 -26 38q-7 2 -14 2z" />
    <glyph glyph-name="uniE617" unicode="&#xe617;" horiz-adv-x="1000" 
d="M487 349l-47 -142h97l-46 142h-4zM781 493h-262l-230 158v-158h-70q-44 0 -74.5 -31t-30.5 -74v-334q0 -44 30.5 -74.5t74.5 -30.5h562q44 0 74.5 30.5t30.5 74.5v334q0 43 -30.5 74t-74.5 31zM666 47h-134v43h43l-26 77h-122l-26 -77h41v-43h-134v43h41l93 259h-41v39
h174v-39h-43l96 -259h38v-43z" />
    <glyph glyph-name="uniE618" unicode="&#xe618;" 
d="M577 -83h319v319h-319v-319zM129 -83h319v319h-319v-319zM129 364h319v319h-319v-319zM577 682v-319h319v319h-319z" />
    <glyph glyph-name="uniE619" unicode="&#xe619;" 
d="M512 536q-98 0 -167 -69t-69 -167t69 -167t167 -69t167 69t69 167t-69 167t-167 69zM512 115q-76 0 -130 54.5t-54 130.5t54 130t130 54q50 0 92.5 -24.5t67.5 -67t25 -92.5q0 -76 -54.5 -130.5t-130.5 -54.5zM512 571q11 0 18.5 7.5t7.5 18.5v125q0 7 -3.5 13t-9.5 9.5
t-13 3.5q-11 0 -18.5 -7.5t-7.5 -18.5v-125q0 -11 7.5 -18.5t18.5 -7.5zM512 29q-5 0 -10 -2t-8.5 -5.5t-5.5 -8t-2 -10.5v-125q0 -11 7.5 -18.5t18.5 -7.5q20 0 25 20l1 6v125q0 7 -3.5 13t-9.5 9.5t-13 3.5zM284 491q8 -7 18 -7q5 0 10 2t9 5q7 8 7 19t-7 18l-89 89
q-8 7 -18.5 7t-18 -7.5t-7.5 -18t7 -18.5zM740 109q-7 7 -18 7t-18.5 -7.5t-7.5 -18.5t7 -18l89 -89q8 -7 18.5 -7t18.5 7q5 5 6.5 12t0 13.5t-6.5 11.5zM241 300q0 3 -0.5 5.5t-1.5 4.5t-2.5 4.5t-3 4t-3.5 3t-4.5 2.5t-5 1.5t-5.5 0.5h-125q-11 0 -18.5 -7.5t-7.5 -18.5
q0 -7 3.5 -13t9.5 -9.5t13 -3.5h125q11 0 18.5 7.5t7.5 18.5zM934 326h-125q-11 0 -18.5 -7.5t-7.5 -18.5t7.5 -18.5t18.5 -7.5h125q11 0 18.5 7.5t7.5 18.5q0 5 -2 10t-5.5 8.5t-8.5 5.5t-10 2zM284 109l-89 -89q-7 -8 -7 -18.5t7.5 -18t18 -7.5t18.5 7l89 89q3 4 5 8.5
t2 9.5t-2 10t-5 9q-8 7 -19 7t-18 -7zM721.5 484q10.5 0 18.5 7l89 89q7 8 7 18.5t-7 18.5q-4 3 -9 5t-10 2t-9.5 -2t-8.5 -5l-89 -89q-7 -7 -7 -18t7.5 -18.5t18 -7.5z" />
    <glyph glyph-name="uniE61A" unicode="&#xe61a;" 
d="M547 -116q-92 0 -175.5 35.5t-144 96t-96 143.5t-35.5 174q0 148 90 268.5t232 162.5l54 16l-16 -55q-8 -27 -12 -55t-4 -56q0 -107 53.5 -198t144.5 -144t199 -53q49 0 100 13l55 14l-18 -54q-50 -152 -186 -238q-111 -70 -241 -70zM384 685q-102 -47 -164 -143
t-62 -209q0 -105 52 -194t141.5 -141t195.5 -52q111 0 204.5 58t142.5 157q-29 -4 -57 -4q-75 0 -145 23t-126 65.5t-98.5 98.5t-66 126t-23.5 144q0 36 6 71z" />
    <glyph glyph-name="uniE61C" unicode="&#xe61c;" horiz-adv-x="1000" 
d="M76 316q0 -107 48.5 -200.5t132.5 -154.5q29 131 98 233q31 46 68 84q-5 9 -7 19t-2 21q0 41 29 70t70 29t70 -29t29 -70t-29 -70t-70 -29q-31 0 -56 18q-13 -14 -27.5 -33.5t-31.5 -45.5q-69 -102 -94 -227q98 -54 211 -54q89 0 170.5 35t140.5 93.5t93.5 140
t34.5 170.5q0 72 -22 139t-62.5 121t-94.5 94.5t-121 62.5t-139 22q-89 0 -170.5 -34.5t-140 -93.5t-93.5 -140t-35 -171zM509 611q81 0 150 -40t109 -109t40 -150q0 -123 -87.5 -210.5t-211.5 -87.5q-34 0 -67 7q-7 2 -12.5 6.5t-7.5 11.5t0 14q2 11 11.5 16.5t19.5 3.5
q27 -6 56 -6q102 0 174 72t72 173q0 108 -80 181q-71 64 -166 65q-102 0 -174 -72t-72 -174q0 -29 7 -57.5t20 -54.5q3 -7 3 -13.5t-4 -12.5t-11 -9q-4 -2 -8 -3t-8 -0.5t-7.5 2.5t-6.5 5t-5 7q-11 21 -18.5 43.5t-11 46t-3.5 46.5q0 35 8 68.5t22.5 63t35 55.5t46.5 46.5
t55.5 35t63 22.5t68.5 8z" />
    <glyph glyph-name="uniE61E" unicode="&#xe61e;" horiz-adv-x="1000" 
d="M515.5 128q68.5 0 117 48.5t48.5 117.5v325q0 69 -48.5 117.5t-117.5 48.5q-45 0 -83 -22t-60 -60.5t-22 -83.5v-325q0 -69 48.5 -117.5t117 -48.5zM778 409q-5 0 -9 -2.5t-6.5 -6.5t-2.5 -9v-103q0 -50 -19.5 -95.5t-52 -78.5t-78 -52.5t-95.5 -19.5q-101 0 -173 72.5
t-72 173.5v103q0 8 -5 13t-12.5 5t-13 -5t-5.5 -13v-103q0 -111 76.5 -192.5t186.5 -88.5v-123h-154q-5 0 -9 -2.5t-6.5 -6.5t-2.5 -9q0 -3 1 -6t2.5 -5t4 -4t5 -2.5t5.5 -0.5h344q8 0 13 5t5 12.5t-5 13t-13 5.5h-154v123q110 7 186.5 88.5t76.5 192.5v103q0 5 -2.5 9
t-6.5 6.5t-9 2.5z" />
    <glyph glyph-name="uniE61F" unicode="&#xe61f;" horiz-adv-x="1000" 
d="M351 582q5 0 10 -0.5t10 -2t10 -3.5q14 -6 24.5 -16t15.5 -24q3 -7 4.5 -14.5t1.5 -16.5q0 -15 -6 -29q-2 -4 -4 -8.5t-5 -8t-7 -7.5q-10 -10 -24 -16q-4 -1 -7.5 -2.5t-7 -2t-7.5 -1t-8 -0.5q-15 0 -29 6t-24.5 16.5t-16.5 24t-6 28.5q0 17 6 31t16.5 24t24.5 16t29 6z
M840 712q18 0 31 -13t13 -30v-652q0 -17 -13 -30t-31 -13h-652q-18 0 -30 13q-6 6 -9.5 13.5t-3.5 16.5v652q0 17 12.5 30t30.5 13h652zM818 603q0 18 -12.5 31t-31.5 13h-520q-19 0 -31.5 -13t-12.5 -31v-260q0 -21 11 -40.5t31 -34.5t48 -24t62 -10q50 0 80.5 14t53 35.5
t42 46.5t46.5 47t66.5 37t102.5 16q11 1 13 0.5t5 -0.5h4h8q9 -1 35 0v173zM818 603z" />
    <glyph glyph-name="uniE620" unicode="&#xe620;" 
d="M512.5 747q-90.5 0 -173.5 -35t-142.5 -95t-95 -142.5t-35.5 -173.5t35.5 -173.5t95 -142.5t142.5 -95.5t173.5 -35.5t173 35.5t142.5 95.5t95.5 142.5t35.5 173.5t-35.5 173.5t-95.5 142.5t-142.5 95t-173 35zM512 -79q-103 0 -190.5 50.5t-138.5 138.5t-51 191
t51 190.5t138.5 138.5t190.5 51q62 0 120 -19t105 -54.5t82 -82t54.5 -104.5t19.5 -120t-19.5 -120t-54.5 -105t-82 -82t-105 -54t-120 -19zM701 451v41h-58v-41h-43v41h-58v-84h7h51h43v-58h-101v-43h236v43h-77v58h77v43h-77zM720 277h-205v88v43h-58h-27v41h85v43h-270
v-43h81v-41h-23h-58v-43v-258h58v258h23v-258h10h29h92h51h7v127h205v-82h-178v-43h236v2v41v125h-58zM457 365v-88h-27v88h27zM365 449h26v-41h-26v41zM457 150h-92v215h26v-88v-36v-7h66v-84z" />
    <glyph glyph-name="uniE621" unicode="&#xe621;" 
d="M489 575q-5 15 -19 22t-29 2q-80 -26 -143.5 -64.5t-103.5 -82.5t-63.5 -81t-38.5 -76q-8 -15 -14 -30.5t-9 -33t-3 -35.5q0 -82 58 -140t140 -58t140.5 58t58.5 140q0 72 -45 126.5t-114 68.5q-14 5 -18 14t1 18t9 14t8 9q68 51 161 81q15 5 22 19t2 29zM957 575
q-5 15 -19 22t-29 2q-80 -26 -143.5 -64.5t-103.5 -82.5t-63.5 -81t-38.5 -76q-13 -23 -19.5 -47.5t-6.5 -51.5q0 -82 58 -140t140 -58t140 58t58 140q0 36 -12 68.5t-33 58t-50.5 43.5t-62.5 25q-12 4 -16.5 11.5t-3 13.5t5.5 13.5t7.5 10.5t5.5 6q69 51 161 81
q15 5 22.5 19t2.5 29z" />
    <glyph glyph-name="uniE622" unicode="&#xe622;" 
d="M332 513q-17 17 -40.5 17t-39.5 -17l-174 -173q-16 -17 -16 -40.5t16 -39.5l174 -174q16 -17 39.5 -17t40.5 17t17 40.5t-17 39.5l-133 134l133 133q11 11 15 25.5t0 29t-15 25.5zM946 340l-173 173q-17 17 -40.5 17t-40 -16.5t-16.5 -40t17 -40.5l133 -133l-133 -134
q-17 -16 -17 -39.5t16.5 -40.5t40 -17t40.5 17l173 174q17 16 17 39.5t-17 40.5zM599 526.5q-22 8.5 -43.5 -1t-30.5 -31.5l-133 -347q-9 -22 0.5 -43.5t31.5 -30.5q10 -4 21 -4t21.5 4.5t18.5 13t13 19.5l133 347q9 22 -0.5 43.5t-31.5 30z" />
    <glyph glyph-name="uniE624" unicode="&#xe624;" 
d="M286 28l-45 45q-10 9 -10 22.5t10 22.5l181 181l-181 182q-5 4 -7.5 10t-2.5 12t2.5 12t7.5 11l45 45q9 10 22.5 10t22.5 -10l182 -181l181 181q9 10 22.5 10t22.5 -10l45 -45q7 -6 9 -14.5t0 -16.5t-9 -14l-181 -182l181 -181q10 -9 10 -22.5t-10 -22.5l-45 -45
q-9 -10 -22.5 -10t-22.5 10l-181 181l-182 -181q-9 -10 -22.5 -10t-22.5 10z" />
    <glyph glyph-name="uniFF31" unicode="&#xff31;" 
d="M981 106q-5 25 -13 49.5t-18 44.5t-21 37.5t-21.5 30.5t-18.5 22.5t-13 13.5l-5 5q3 24 2.5 42.5t-3.5 32.5t-7 23.5t-8.5 16t-8.5 10.5t-6 5l-3 1q-2 71 -20.5 127.5t-44 91t-60.5 59.5t-64 36.5t-60.5 17.5t-43.5 6.5t-19 0.5q-70 2 -142 -33q-164 -81 -171 -306
q-2 0 -4.5 -2.5t-10.5 -11.5t-12 -22.5t-8 -38t1 -56.5l-29 -33q-65 -80 -80 -170q-1 -4 -1 -11.5t1 -25.5t4 -31t10 -23.5t17.5 -9t28.5 19.5t41 55q26 -69 72 -131q-4 -1 -9.5 -3.5t-19.5 -11t-24 -19.5t-17.5 -29t-5.5 -38q0 -4 1 -9.5t10 -19t25.5 -24t53.5 -18t87 -6.5
q5 1 14 2t33 5.5t44 11t41.5 18.5t32.5 27h34q7 -11 20.5 -20.5t28.5 -16t31.5 -11.5t31 -7.5t26.5 -4.5t19 -3l7 -1q51 -1 87.5 6t53 18.5t26 23.5t10.5 20l1 9q1 15 -2.5 28.5t-10 23.5t-15 18.5t-17 14t-15.5 9.5t-12 6l-4 1q20 28 38 61t25.5 51t7.5 19q23 -37 41 -55
t28.5 -19.5t18 9t10 24t3.5 31t1 24.5v12z" />
  </font>
</defs>
</svg>
